HIERARCHY
ROOT Hips
{
  OFFSET 265.287 66.7526 -254.649
  CHANNELS 6 Xposition Yposition Zposition Zrotation Xrotation Yrotation
  JOINT LeftUpLeg
  {
    OFFSET 8.64259 1.95398 -2.38835
    CHANNELS 3 Zrotation Xrotation Yrotation
    JOINT LeftLeg
    {
      OFFSET 43.7702 0 0
      CHANNELS 3 Zrotation Xrotation Yrotation
      JOINT LeftFoot
      {
        OFFSET 40.6238 0 0
        CHANNELS 3 Zrotation Xrotation Yrotation
        JOINT LeftToeBase
        {
          OFFSET 12.7242 0 0
          CHANNELS 3 Zrotation Xrotation Yrotation
          End Site
          {
            OFFSET 0 0 0
          }
        }
      }
    }
  }
  JOINT RightUpLeg
  {
    OFFSET -8.2249 1.95398 -2.59336
    CHANNELS 3 Zrotation Xrotation Yrotation
    JOINT RightLeg
    {
      OFFSET 43.5653 0 0
      CHANNELS 3 Zrotation Xrotation Yrotation
      JOINT RightFoot
      {
        OFFSET 40.6238 0 0
        CHANNELS 3 Zrotation Xrotation Yrotation
        JOINT RightToeBase
        {
          OFFSET 12.7242 0 0
          CHANNELS 3 Zrotation Xrotation Yrotation
          End Site
          {
            OFFSET 0 0 0
          }
        }
      }
    }
  }
  JOINT Spine
  {
    OFFSET 0.165834 0.87714 6.61349
    CHANNELS 3 Zrotation Xrotation Yrotation
    JOINT Spine1
    {
      OFFSET 7.38963 1.71661e-005 0
      CHANNELS 3 Zrotation Xrotation Yrotation
      JOINT Spine2
      {
        OFFSET 11.9445 1.14441e-005 0
        CHANNELS 3 Zrotation Xrotation Yrotation
        JOINT Spine3
        {
          OFFSET 14.7254 4.19617e-005 0
          CHANNELS 3 Zrotation Xrotation Yrotation
          JOINT Spine4
          {
            OFFSET 10.9679 0 0
            CHANNELS 3 Zrotation Xrotation Yrotation
            JOINT RightShoulder
            {
              OFFSET 2.46616 -1.6653 3.69651
              CHANNELS 3 Zrotation Xrotation Yrotation
              JOINT RightArm
              {
                OFFSET 13.0012 0 0
                CHANNELS 3 Zrotation Xrotation Yrotation
                JOINT RightForeArm
                {
                  OFFSET 28.7848 1.52588e-005 0
                  CHANNELS 3 Zrotation Xrotation Yrotation
                  JOINT RightHand
                  {
                    OFFSET 26.5688 1.52588e-005 0
                    CHANNELS 3 Zrotation Xrotation Yrotation
                    End Site
                    {
                      OFFSET 0 0 0
                    }
                  }
                }
              }
            }
            JOINT LeftShoulder
            {
              OFFSET 2.38034 -1.29275 -3.7523
              CHANNELS 3 Zrotation Xrotation Yrotation
              JOINT LeftArm
              {
                OFFSET 16.3182 6.10351e-005 0
                CHANNELS 3 Zrotation Xrotation Yrotation
                JOINT LeftForeArm
                {
                  OFFSET 27.0901 0 0
                  CHANNELS 3 Zrotation Xrotation Yrotation
                  JOINT LeftHand
                  {
                    OFFSET 24.5451 1.52588e-005 0
                    CHANNELS 3 Zrotation Xrotation Yrotation
                    End Site
                    {
                      OFFSET 0 0 0
                    }
                  }
                }
              }
            }
            JOINT Neck
            {
              OFFSET 5.0226 -0.0266342 0
              CHANNELS 3 Zrotation Xrotation Yrotation
              JOINT Head
              {
                OFFSET 6.69364 2.86102e-005 0
                CHANNELS 3 Zrotation Xrotation Yrotation
                End Site
                {
                  OFFSET 0 0 0
                }
              }
            }
          }
        }
      }
    }
  }
}
MOTION
Frames:	13
Frame Time:	0.0416667
129.793 97.0881 -117.278 101.298 48.8534 82.8853 -179.928 17.9933 89.9088 -50.0989 6.84271 3.25967 57.3716 2.24269 5.65092 43.2074 -4.26338 8.03744 176.105 5.02068 91.962 -30.9201 -4.51849 0.0988764 70.2308 1.33675 12.1976 28.4169 0.16679 -0.961645 0.0821096 8.05774 -90.4813 10.7572 -0.0585445 -0.951616 -0.91411 -0.100374 -0.948127 -23.4466 0.230145 -0.92522 -3.43393 0.230143 -0.925225 101.992 -48.5581 -82.4401 28.9884 -4.80428 -2.83355 -4.63174 -16.874 -24.2931 -12.8681 -0.727082 1.42304 -83.0886 -49.9648 88.9062 -27.4948 9.35722 -17.642 6.58743 29.0243 -8.21214 0.263208 0.00203115 -0.347601 12.6451 1.97901 -10.7917 -18.3942 1.97674 20.198 
125.828 97.0683 -114.532 101.305 50.6463 82.4704 -178.6 12.2763 91.1631 -59.1325 6.93505 3.13931 58.1249 2.97149 7.76104 44.5596 -4.63624 6.45954 175.409 8.27539 90.6476 -30.7472 -5.10983 0.687584 68.1398 2.43654 11.7374 26.3622 0.669644 -2.32107 -0.146739 7.92004 -90.5028 11.0312 -0.52508 -0.948481 -0.639966 -0.566316 -0.924453 -23.1725 -0.215762 -1.06242 -3.15982 -0.215768 -1.06242 102.303 -49.4911 -81.9496 28.1044 -3.66057 -1.07309 -2.70593 -18.1116 -18.5612 -13.4784 -0.841383 2.1259 -83.2393 -49.864 88.6681 -28.3051 9.98095 -18.3063 8.82499 27.0156 -12.9413 -0.209026 -0.0353354 -1.2054 11.5629 2.15438 -10.7058 -17.6301 2.31744 18.981 
121.648 97.3393 -111.638 100.166 54.2354 84.3173 -176.653 4.70943 95.1981 -54.8455 9.77167 4.23722 59.7498 3.28699 6.37969 47.0191 -5.34919 4.56938 175.347 10.8237 90.8994 -27.2564 -3.82518 1.32421 63.6729 4.04087 11.4609 26.5254 0.516213 -1.37071 -0.613106 7.68638 -90.6673 11.4923 -1.53176 -1.17373 -0.17825 -1.58193 -1.10517 -22.7133 -1.10822 -1.57977 -2.70069 -1.10824 -1.57979 102.719 -50.1728 -81.3058 27.6103 -1.16388 0.299572 -2.38241 -19.985 -14.7082 -12.4006 -0.865266 3.02747 -83.3452 -49.4289 88.4638 -29.5798 12.285 -18.5832 10.5325 24.0245 -18.3092 1.48115 -0.0291993 -2.64959 8.88647 1.54668 -9.67722 -15.1475 2.08808 14.8646 
116.593 97.5745 -108.321 99.9002 57.804 84.9284 -176.383 -2.3817 96.7089 -41.2572 14.8341 6.57533 59.7155 2.22538 0.686742 46.1867 -5.17131 3.82245 175.564 13.0004 90.2864 -22.9364 -4.53067 1.24446 57.0274 5.75376 9.19585 28.5623 0.290549 -2.22892 -1.02466 7.65021 -90.7329 11.5608 -2.38129 -1.21528 -0.108441 -2.43248 -1.10925 -22.6512 -1.90601 -1.87486 -2.63853 -1.90601 -1.87485 102.944 -50.3254 -80.9573 28.1637 0.148128 1.05602 -2.37493 -18.1596 -14.0903 -11.5931 -0.818328 3.12612 -83.61 -48.3594 87.9466 -30.1876 15.095 -20.3786 12.3074 22.5222 -23.7631 1.54962 -0.0188379 -2.30922 7.82725 0.478678 -9.966 -14.237 1.25837 13.5942 
110.178 97.0811 -104.504 98.6918 58.6801 86.1948 -177.577 -5.50304 94.6437 -30.237 19.4426 8.12854 62.2037 3.12863 2.31804 52.9628 -6.87193 5.03908 176.113 15.531 88.7941 -17.3551 -3.51758 0.605961 50.383 7.83552 11.0703 30.077 0.0595212 -2.3958 -1.04644 7.74738 -90.7643 11.3654 -2.43859 -1.27729 -0.303816 -2.49244 -1.16869 -22.8466 -1.94203 -1.95121 -2.83397 -1.94202 -1.95122 102.937 -50.0909 -80.9648 28.5394 -0.279541 0.124246 -2.41453 -17.3399 -14.7341 -11.8679 -0.766518 2.40378 -83.8242 -48.3568 87.6159 -29.0152 16.6157 -24.7079 13.3919 22.9664 -25.8701 2.31569 -0.0232023 -2.72541 7.42849 -0.0772038 -10.3014 -13.4941 0.775499 14.2529 
103.295 97.013 -99.8244 101.813 56.006 81.1617 -174.572 -6.68692 91.0335 -24.1807 21.1704 4.6982 66.5121 5.58999 10.066 44.9632 -4.96819 0.858309 175.461 15.612 85.362 -11.9417 -2.58339 -0.0843463 51.3528 6.48437 14.1411 36.0903 -1.04421 -0.422153 -0.909198 8.2693 -90.3524 10.3322 -1.97263 -0.530688 -1.33733 -1.99407 -0.443333 -23.8814 -1.72193 -1.09916 -3.86878 -1.72191 -1.09916 102.34 -50.6008 -81.8962 28.6726 -1.12317 -2.69266 -2.82471 -17.0856 -16.4002 -12.6349 -0.778261 2.03753 -83.855 -48.2277 87.553 -27.1069 16.4189 -27.7172 13.2217 22.074 -26.3147 3.48145 -0.0183632 -2.96162 7.88894 0.10906 -11.0658 -12.9615 1.13896 15.285 
97.1098 96.7448 -95.5791 102.313 54.2428 79.4039 -175.024 -3.97171 87.9402 -22.3459 20.5175 2.56913 67.1599 6.50456 15.2391 40.4569 -3.59222 -2.55071 174.751 17.0547 83.651 -11.9951 -1.95724 -0.0433234 52.3218 5.34754 17.1781 37.1575 -1.22861 0.19409 -0.95117 8.45261 -90.0201 9.96948 -1.90463 0.115473 -1.70009 -1.89772 0.199211 -24.2459 -1.85127 -0.462498 -4.23326 -1.85127 -0.462495 101.908 -50.1257 -82.5666 30.4307 -2.31844 -3.22208 -4.26355 -17.1577 -20.8712 -13.0506 -0.74952 1.531 -83.9818 -47.4029 87.2627 -26.2253 15.3047 -26.2675 12.2606 22.238 -24.316 3.17842 -0.0165972 -2.82282 7.40927 0.490516 -10.8211 -13.5842 1.319 15.4823 
92.6749 96.3955 -92.1283 103.429 53.0954 79.1711 -174.112 -0.904644 87.638 -23.1256 19.251 1.37858 69.3216 6.82052 15.8178 33.9233 -1.12349 -6.91466 173.375 20.2343 84.8081 -29.6137 -9.06013 0.639749 52.5488 4.90765 17.571 41.4015 -1.81767 0.88873 -0.918794 8.58352 -90.0037 9.70869 -1.83316 0.136175 -1.96097 -1.82541 0.216745 -24.5062 -1.78933 -0.42125 -4.49352 -1.78932 -0.421247 101.944 -50.4082 -82.5089 30.0531 -4.17491 -3.48874 -4.63552 -17.7717 -23.225 -14.4287 -0.839661 1.60622 -84.2228 -48.8161 87.0554 -24.9059 12.9971 -23.1967 10.2403 24.0742 -18.8636 2.8567 0.00741464 -2.2329 7.5661 0.721904 -9.36706 -13.4396 1.34018 14.7752 
89.1047 96.4997 -89.1656 102.361 52.0575 81.5951 -174.385 3.08568 87.9487 -24.4175 17.4757 1.6501 67.649 4.87437 14.0223 32.535 -0.61191 -6.92849 171.275 21.1627 86.8758 -49.9511 -8.85413 0.880077 53.9735 4.30336 18.7645 42.7371 -1.99924 1.46984 -0.764885 8.37826 -90.1142 10.1174 -1.5763 -0.0943519 -1.55263 -1.5789 -0.0248808 -24.0947 -1.47507 -0.563844 -4.08203 -1.47502 -0.563831 101.474 -49.7148 -83.2474 32.1427 -2.62093 -2.02289 -5.38106 -18.9147 -22.5508 -13.3571 -0.769659 1.55188 -83.9419 -49.1326 87.5213 -25.9607 10.9349 -17.5468 7.67392 25.8907 -12.5694 2.72129 0.0645251 -0.884899 7.01879 0.863269 -8.14046 -14.8602 1.09442 13.8837 
85.8627 96.1945 -86.1885 101.316 50.2048 83.3563 -173.798 7.25644 88.489 -26.1074 17.1373 1.07015 66.2197 3.58773 13.7186 31.6469 -0.321109 -6.43492 170.36 16.5245 87.6032 -60.5227 -10.5311 0.234034 52.776 4.76821 20.5611 46.4297 -2.47638 1.77118 -0.426879 8.12112 -90.1801 10.6311 -0.933256 -0.274942 -1.0395 -0.944444 -0.233593 -23.5765 -0.807472 -0.542726 -3.56388 -0.807476 -0.542718 101 -49.5394 -83.9935 32.0055 -2.97706 -0.176885 -4.71167 -19.1402 -21.4827 -13.2378 -0.830013 2.15489 -83.5411 -49.8341 88.2072 -26.7604 8.46571 -10.6439 8.16857 28.8848 -11.5251 -0.20215 -0.0290024 -1.10275 6.88676 0.849519 -7.04707 -14.698 0.979998 12.7869 
82.5585 95.5941 -82.9791 99.2585 47.6054 84.0467 -173.826 11.3432 87.1702 -26.2014 14.3222 0.237454 64.6742 1.87798 12.0391 29.5187 0.494883 -6.61218 171.255 8.75199 86.3358 -58.3689 -14.6468 -0.83755 49.6176 6.52034 26.8587 52.6005 -3.21032 2.30613 -0.0450952 7.7698 -90.034 11.3343 -0.10555 -0.0572526 -0.336665 -0.107966 -0.0525546 -22.8719 -0.0834646 -0.0863249 -2.8592 -0.0834634 -0.0863235 100.879 -49.5812 -84.1816 31.9243 -2.44929 -0.128971 -3.63887 -19.5646 -18.6145 -13.7416 -0.897396 2.46376 -82.9923 -50.5393 89.1044 -27.082 5.71856 -4.05785 9.23972 27.1266 -12.7255 0.0993819 -0.00862926 -0.639637 5.67202 1.19409 -4.78002 -13.5641 1.15141 10.5225 
78.6505 95.2496 -78.8729 97.5725 46.3418 84.8744 -174.162 15.0477 86.4422 -23.7433 13.6145 -0.0495631 60.3842 -0.288017 11.6237 30.0008 0.274539 -6.33812 172.91 -0.961242 86.0951 -44.0878 -14.8374 -1.38451 46.6174 7.43037 32.3701 52.8537 -3.34998 1.12199 0.303864 7.49562 -89.9911 11.8828 0.608493 -0.0477224 0.212017 0.605805 -0.0744634 -22.3242 0.594697 0.137368 -2.31153 0.594693 0.137359 101.093 -49.2995 -83.8521 31.9852 -2.58101 -0.288189 -3.20053 -18.6492 -18.1896 -13.5163 -0.874992 2.39637 -82.9283 -51.0726 89.2503 -26.8456 4.56326 -1.26649 9.77837 25.5314 -13.8223 -0.210549 -0.0192961 -0.649792 5.53284 0.647371 -3.59516 -14.5698 0.405178 9.31375 
73.8835 95.0697 -73.704 95.5699 47.0247 85.9662 -175.189 17.7796 85.9011 -16.5331 12.5544 0.0879868 53.0829 -3.24941 8.36448 36.184 -2.15431 -3.15122 174.59 -4.847 88.4187 -31.2775 -12.3583 -1.24419 55.5166 5.47712 31.6352 44.2293 -2.15788 3.04091 0.443377 7.37906 -90.0308 12.1167 0.866805 -0.157071 0.446019 0.859034 -0.195075 -22.0914 0.873938 0.110725 -2.07881 0.873923 0.110715 101.058 -48.5532 -83.9227 31.9892 -3.48049 -1.63166 -3.76732 -17.7288 -20.5473 -13.7701 -0.764815 1.30004 -82.1961 -51.9433 90.4127 -26.0971 4.75437 -4.19066 9.99819 24.4264 -14.5164 -1.0479 -0.0408588 -0.0769183 6.39011 0.452266 -2.82345 -14.6596 0.131612 8.79773 
